<svg width="800" height="600" viewBox="0 0 800 600" fill="none" xmlns="http://www.w3.org/2000/svg">
<rect width="800" height="600" fill="#D52331"/>
<path d="M209.28 301.089C206.51 301.089 205.01 299.887 204.2 297.693C203.394 295.616 203.625 294.643 201.546 294.643C199.469 294.643 194.621 300.359 193.928 308.205C193.813 309.13 193.698 314.323 193.698 317.21V324.29C193.698 327.406 193.468 331.332 194.044 333.64C194.621 336.757 195.429 337.102 197.854 338.14C198.661 338.49 199.008 338.603 199.584 338.717V338.949H178V338.717C178.594 338.581 179.173 338.388 179.73 338.141C182.156 337.101 182.848 336.757 183.425 333.641C184.002 331.331 183.772 327.406 183.772 324.291V304.203C183.772 302.243 183.887 296.701 183.656 294.971C183.31 292.778 182.733 292.085 181.693 291.277C180.54 290.354 179.386 290.354 178.693 290.237V290.007H193.121C193.813 290.007 193.813 290.237 193.813 290.699L193.698 303.859H193.813C195.198 298.087 198.199 294.394 199.813 292.779C201.431 291.047 204.433 288.969 208.126 288.969C209.856 288.969 211.82 289.431 213.089 290.816C214.014 291.736 214.706 293.238 214.706 295.666C214.706 298.432 212.976 301.086 209.281 301.086L209.28 301.089ZM425.868 301.089C423.098 301.089 421.598 299.887 420.788 297.693C419.981 295.616 420.212 294.643 418.136 294.643C416.056 294.643 411.21 300.359 410.516 308.205C410.401 309.13 410.284 314.323 410.284 317.21V324.29C410.284 327.406 410.054 331.332 410.634 333.64C411.21 336.757 412.017 337.102 414.441 338.14C415.249 338.49 415.595 338.603 416.173 338.717V338.949H394.588V338.717C395.05 338.603 395.513 338.489 396.318 338.141C398.743 337.101 399.436 336.757 400.013 333.641C400.59 331.331 400.358 327.406 400.358 324.291V304.203C400.358 302.243 400.476 296.701 400.243 294.971C399.898 292.778 399.321 292.085 398.281 291.277C397.127 290.354 395.974 290.354 395.281 290.237V290.007H409.709C410.402 290.007 410.402 290.237 410.402 290.699L410.285 303.859H410.402C411.786 298.087 414.787 294.394 416.404 292.779C418.02 291.047 421.021 288.969 424.714 288.969C426.444 288.969 428.408 289.431 429.678 290.816C430.6 291.736 431.291 293.238 431.291 295.666C431.291 298.432 429.561 301.086 425.868 301.086V301.089ZM240.561 293.328C238.713 291.806 236.867 291.234 234.096 291.234C231.673 291.234 229.826 291.807 228.096 293.424C225.556 295.704 224.169 300.939 223.824 308.456H240.444C243.794 308.456 244.138 308.359 244.138 304.174C244.138 298.369 242.408 294.85 240.561 293.329V293.328V293.328ZM254.296 310.786H223.824C223.824 324.29 225.556 328.411 228.904 332.22C231.557 335.22 233.982 336.028 237.329 336.028C246.564 336.028 251.642 331.332 253.373 323.251L253.835 323.367C251.757 333.409 245.41 339.987 235.483 339.987C229.71 339.987 223.48 338.603 219.208 334.101C214.59 329.138 212.858 323.136 212.858 314.824C212.858 299.36 221.748 288.971 233.982 288.971C248.179 288.971 254.412 298.551 254.412 307.556C254.412 308.363 254.412 309.518 254.296 310.786V310.786ZM273.876 316.17C270.646 317.904 269.258 319.055 268.221 320.67C267.066 322.517 266.374 324.596 266.374 327.828C266.374 334.408 268.914 335.796 273.53 335.796C274.453 335.796 275.492 335.68 276.415 335.216C278.839 333.948 282.347 330.256 282.347 326.563L282.461 310.4C280.846 312.937 276.991 314.554 273.875 316.17H273.876V316.17ZM291.003 339.986C288.233 339.986 286.041 339.872 284.655 339.066C283.155 338.256 282.115 335.946 282.347 331.678H282.229C281.076 335.602 275.836 339.986 268.451 339.986C261.641 339.986 255.638 336.066 255.638 327.753C255.638 324.636 256.561 322.211 258.525 320.367C262.103 317.02 266.95 316.787 271.913 314.824C278.493 312.284 282.693 309.172 282.693 305.71C282.693 303.977 282.84 300.044 282.84 298.312C282.84 292.079 280.024 291.042 275.06 291.042C272.637 291.042 271.137 291.502 269.983 292.657C268.829 293.812 268.336 294.857 268.336 298.321C268.336 301.899 266.374 303.401 263.142 303.401C260.602 303.401 258.525 302.014 258.525 299.013C258.525 297.051 259.217 295.667 260.371 294.28C262.911 291.05 269.951 289.085 274.915 289.085C283.455 289.085 292.965 292.203 292.965 300.399C292.965 304.205 292.735 322.299 292.735 329.226C292.735 330.754 292.722 332.286 292.833 333.814C292.97 335.694 293.523 337.849 295.635 338.319C296.61 338.535 297.885 338.349 298.7 337.743V337.903C297.545 338.94 294.696 339.986 291.003 339.986V339.986ZM298.85 338.949V338.717C299.518 338.58 300.174 338.387 300.81 338.141C302.775 337.331 303.698 336.641 304.274 333.641C304.737 331.446 304.737 327.641 304.737 324.406V274.196C304.737 272.234 304.852 266.694 304.505 264.962C304.158 262.769 303.581 261.962 302.543 261.272C301.273 260.345 300.349 260.345 299.543 260.232V260H314.085C314.777 260 314.777 260 314.777 260.806C314.777 262.538 314.663 264.961 314.663 268.079V324.405C314.663 327.639 314.547 331.331 315.008 333.639C315.701 336.756 316.508 337.331 318.934 338.255C319.626 338.488 319.857 338.602 320.434 338.715V338.948H298.85V338.949ZM352.058 332.6C350.328 336.408 345.248 339.986 340.285 339.986C335.785 339.986 332.785 339.296 330.245 336.986C328.165 335.139 327.243 332.832 327.243 328.562C327.243 326.252 327.589 296.357 327.705 290.7C325.973 290.586 322.625 290.586 320.895 290.355V290.125C328.051 288.507 332.552 284.817 337.399 269.232H337.749V288.344H349.175V290.586H337.748L337.283 329.373C337.283 333.758 338.553 337.526 343.169 337.526C347.209 337.526 350.327 335.139 351.711 332.371L352.058 332.601" fill="white"/>
<path d="M379.181 294.581C376.871 291.811 374.218 291.234 371.561 291.234C369.025 291.234 366.254 292.16 364.061 294.467C360.598 298.045 358.636 305.593 358.636 314.365C358.636 323.369 360.713 330.411 363.946 334.221C366.254 336.991 369.026 337.683 371.562 337.683C374.218 337.683 376.757 337.108 379.182 334.337C382.297 330.527 384.49 323.369 384.49 314.367C384.49 305.477 382.414 298.391 379.18 294.583L379.181 294.581V294.581ZM371.561 339.986C360.137 339.986 347.901 330.178 347.901 314.364C347.901 298.551 360.137 288.971 371.561 288.971C382.991 288.971 395.341 298.668 395.341 314.365C395.341 330.065 382.991 339.988 371.561 339.988V339.986ZM513.185 294.581C510.877 291.811 508.222 291.234 505.565 291.234C503.027 291.234 500.258 292.16 498.065 294.467C494.602 298.045 492.639 305.593 492.639 314.365C492.639 323.369 494.719 330.411 497.949 334.221C500.259 336.991 503.029 337.683 505.567 337.683C508.223 337.683 510.763 337.108 513.187 334.337C516.304 330.527 518.497 323.369 518.497 314.367C518.497 305.477 516.417 298.391 513.187 294.583L513.185 294.581V294.581ZM505.565 339.986C494.139 339.986 481.905 330.178 481.905 314.364C481.905 298.551 494.139 288.971 505.565 288.971C516.993 288.971 529.345 298.668 529.345 314.365C529.345 330.065 516.993 339.988 505.565 339.988V339.986ZM431.698 340.68C428.348 340.68 425.578 338.025 425.578 334.333C425.578 330.639 428.348 327.983 431.698 327.983C435.044 327.983 437.815 330.293 437.815 334.333C437.815 338.373 435.045 340.68 431.698 340.68V340.68ZM463.783 339.986C457.435 339.986 451.779 337.566 448.087 333.87C443.355 329.024 441.507 322.21 441.507 313.904C441.507 298.204 453.511 288.971 463.899 288.971C471.053 288.971 476.364 291.627 478.441 294.166C480.058 296.129 480.868 297.86 480.868 299.474C480.868 303.054 478.212 304.439 476.134 304.439C472.211 304.439 470.824 302.014 470.364 298.321C469.439 291.741 468.401 290.894 463.437 290.894C461.475 290.894 458.357 291.702 456.512 293.781C453.856 296.781 452.472 302.937 452.472 311.941C452.472 323.251 453.856 327.721 456.859 332.105C459.051 335.338 461.821 336.148 464.476 336.148C474.864 336.148 479.48 330.064 481.096 323.253L481.556 323.369C479.48 332.489 473.479 339.989 463.781 339.989" fill="white"/>
<path d="M588.448 338.976V338.743C589.026 338.628 589.371 338.513 590.181 338.168C592.488 337.244 593.298 336.668 593.874 333.55C594.451 331.24 594.334 327.547 594.334 324.316V304.23C594.334 298.92 593.874 296.422 592.604 294.692C591.104 292.727 589.257 291.689 586.256 291.689C581.061 291.689 575.289 300.547 574.481 309.434C574.364 311.164 574.251 312.584 574.251 314.774V324.314C574.251 327.546 574.021 331.24 574.597 333.549C575.173 336.667 576.097 337.243 578.405 338.167C579.213 338.513 579.558 338.627 580.137 338.742V338.975H558.551V338.742C559.127 338.627 559.475 338.512 560.283 338.167C562.59 337.243 563.398 336.667 563.977 333.549C564.555 331.239 564.437 327.546 564.437 324.315V304.23C564.437 298.92 563.861 296.422 562.59 294.692C561.09 292.727 559.243 291.689 556.242 291.689C550.472 291.689 545.274 300.776 544.467 309.666C544.235 312.436 544.235 311.386 544.235 314.849V324.315C544.235 327.545 544.007 331.357 544.583 333.665C545.16 336.782 546.083 337.125 548.507 338.167L550.123 338.742V338.975H528.54V338.742C529 338.627 529.46 338.512 530.27 338.167C532.693 337.243 533.27 336.782 533.963 333.664C534.539 331.357 534.425 327.546 534.425 324.314V304.344C534.425 302.268 534.425 296.724 534.195 294.994C533.848 292.801 533.385 292.224 532.231 291.298C531.077 290.378 530.038 290.378 529.231 290.263V290.033H543.771C544.467 290.033 544.467 290.147 544.467 290.723L544.235 302.036H544.352C545.738 296.958 548.277 294.071 550.816 292.226C552.662 290.839 556.356 288.99 560.396 288.99C565.476 288.99 569.056 290.492 571.133 293.032C572.286 294.418 574.133 297.649 574.133 302.382H574.248C575.748 296.957 578.518 293.955 580.942 292.224C583.48 290.377 587.407 288.989 590.408 288.989C596.758 288.989 599.644 290.953 601.375 293.149C602.875 294.879 604.142 297.995 604.142 303.884V324.314C604.142 327.546 604.028 331.24 604.604 333.549C605.182 336.667 605.989 337.126 608.414 338.167L610.032 338.742V338.975H588.442L588.448 338.976V338.976ZM616.012 290.466C616.446 290.466 616.79 290.366 617.037 290.166C617.158 290.071 617.255 289.95 617.319 289.811C617.384 289.672 617.415 289.519 617.41 289.366V289.326C617.41 288.966 617.285 288.693 617.036 288.506C616.788 288.319 616.444 288.226 616.01 288.226H614.254V290.466H616.012V290.466ZM612.912 287.016H616.067C616.985 287.016 617.701 287.268 618.212 287.78C618.599 288.14 618.79 288.632 618.79 289.255V289.289C618.79 289.863 618.64 290.324 618.333 290.682C618.02 291.039 617.608 291.294 617.149 291.416L619.052 294.086H617.448L615.731 291.641H614.256V294.084H612.913V287.014L612.912 287.016V287.016ZM615.62 296.523C616.403 296.529 617.179 296.371 617.898 296.06C619.275 295.474 620.366 294.37 620.937 292.987C621.229 292.284 621.377 291.537 621.377 290.745V290.711C621.382 289.946 621.234 289.187 620.943 288.479C620.664 287.798 620.255 287.178 619.739 286.654C619.218 286.131 618.601 285.714 617.922 285.424C617.206 285.118 616.434 284.963 615.655 284.971C614.84 284.971 614.081 285.124 613.379 285.431C612.679 285.741 612.069 286.151 611.554 286.674C611.034 287.2 610.622 287.823 610.339 288.506C610.045 289.206 609.896 289.956 609.896 290.746V290.782C609.886 292.298 610.476 293.756 611.537 294.838C612.07 295.378 612.706 295.805 613.407 296.095C614.108 296.384 614.86 296.53 615.619 296.524L615.62 296.523ZM615.62 297.353C614.693 297.353 613.83 297.18 613.028 296.833C612.247 296.5 611.538 296.02 610.938 295.419C610.345 294.817 609.871 294.108 609.542 293.329C609.2 292.523 609.025 291.656 609.03 290.781V290.745C609.03 289.845 609.2 288.997 609.542 288.2C609.882 287.4 610.352 286.702 610.949 286.1C611.554 285.493 612.268 285.007 613.055 284.668C613.876 284.314 614.762 284.134 615.657 284.14C616.583 284.14 617.443 284.313 618.249 284.658C619.052 285.006 619.749 285.478 620.339 286.073C620.933 286.674 621.406 287.384 621.733 288.163C622.077 288.959 622.247 289.809 622.247 290.711V290.745C622.247 291.647 622.077 292.495 621.733 293.293C621.403 294.075 620.927 294.787 620.33 295.391C619.726 295.999 619.011 296.485 618.224 296.823C617.414 297.177 616.547 297.353 615.622 297.353H615.62V297.353Z" fill="white"/>
</svg>
