<svg width="800" height="600" viewBox="0 0 800 600" fill="none" xmlns="http://www.w3.org/2000/svg">
<rect width="800" height="600" fill="#5F1544"/>
<path d="M525.267 368.27C499.678 368.27 478.935 347.462 478.935 321.793C478.935 296.125 499.678 275.317 525.267 275.317C550.855 275.317 571.599 296.125 571.599 321.793C571.574 347.451 550.845 368.245 525.267 368.27ZM525.267 302.56C514.682 302.56 506.101 311.168 506.101 321.786C506.101 332.408 514.684 341.018 525.273 341.018C535.861 341.018 544.445 332.408 544.445 321.786C544.445 316.685 542.424 311.793 538.827 308.187C535.23 304.581 530.352 302.557 525.267 302.56Z" fill="#FF4242"/>
<path d="M525.267 275.713C543.846 275.712 560.596 286.938 567.707 304.156C574.817 321.374 570.888 341.193 557.751 354.372C544.614 367.55 524.856 371.493 507.691 364.361C490.526 357.23 479.334 340.428 479.334 321.791C479.337 296.345 499.9 275.717 525.267 275.713ZM525.267 341.422C536.075 341.422 544.838 332.633 544.838 321.791C544.838 310.949 536.075 302.159 525.267 302.159C514.458 302.159 505.696 310.949 505.696 321.791C505.714 332.626 514.466 341.404 525.267 341.422ZM525.267 274.512C499.51 274.513 478.609 295.42 478.537 321.257C478.464 347.094 499.246 368.119 525.003 368.267C550.759 368.414 571.779 347.627 571.999 321.791C572.09 309.294 567.208 297.276 558.436 288.401C549.664 279.527 537.726 274.528 525.267 274.512V274.512ZM525.267 340.221C515.119 340.221 506.893 331.97 506.893 321.791C506.893 311.612 515.119 303.36 525.267 303.36C535.414 303.36 543.64 311.612 543.64 321.791C543.526 331.922 535.367 340.107 525.267 340.221Z" fill="#FF4242"/>
<path d="M448.179 267.7C458.105 267.7 466.152 259.628 466.152 249.671C466.152 239.713 458.105 231.641 448.179 231.641C438.252 231.641 430.205 239.713 430.205 249.671C430.205 259.628 438.252 267.7 448.179 267.7Z" fill="#FF4242"/>
<path d="M448.179 231.24V231.24C458.279 231.354 466.439 239.54 466.552 249.671C466.566 254.563 464.634 259.259 461.186 262.718C457.737 266.177 453.056 268.115 448.179 268.101C438.079 267.987 429.919 259.802 429.805 249.671C429.792 244.779 431.724 240.083 435.172 236.624C438.621 233.165 443.302 231.227 448.179 231.24ZM448.179 232.441C438.586 232.338 430.722 240.048 430.605 249.671C430.69 259.371 438.509 267.214 448.179 267.299C457.772 267.402 465.636 259.692 465.753 250.07C465.668 240.369 457.849 232.526 448.179 232.441Z" fill="#FF4242"/>
<path d="M432.202 258.486L486.923 347.833" stroke="#FF4242" stroke-width="0.273"/>
<path d="M456.167 233.645L546.037 280.121" stroke="#FF4242" stroke-width="0.273"/>
<path d="M245.271 343.025C242.46 342.839 239.702 343.858 237.683 345.83L237.283 346.232V343.426H229.695V366.665H237.283V353.442C239.422 351.402 242.331 350.38 245.271 350.637V343.025Z" fill="white"/>
<path d="M264.047 359.454C263.226 360.601 261.852 361.214 260.453 361.057C257.853 361.311 255.465 359.6 254.862 357.05V356.649H271.638V353.855C271.774 350.731 270.596 347.693 268.391 345.482C266.187 343.27 263.158 342.089 260.044 342.225C256.771 342.017 253.563 343.202 251.208 345.491C248.853 347.779 247.568 350.957 247.671 354.245C247.671 361.455 252.862 366.264 260.448 366.264C266.04 366.264 270.434 363.459 271.633 358.652H264.047V359.454ZM254.859 352.642C255.418 350.236 257.591 348.559 260.053 348.633C262.469 348.447 264.594 350.223 264.847 352.64V353.041L254.862 352.64L254.859 352.642Z" fill="white"/>
<path d="M286.026 367.064C292.817 367.064 296.812 364.259 296.812 359.452C296.812 355.847 294.415 353.442 289.623 352.64L285.229 351.838C283.632 351.437 282.432 351.036 282.432 349.835C282.432 349.032 283.232 347.831 285.627 347.831C288.021 347.831 289.621 348.634 289.621 350.637H296.412C296.412 348.634 294.814 343.025 285.627 343.025C279.238 343.025 275.241 345.83 275.241 350.637C275.241 354.242 277.638 356.647 282.032 357.449L286.826 358.251C288.823 358.652 289.223 359.452 289.223 360.254C289.223 361.455 288.026 362.258 285.629 362.258C283.232 362.258 281.223 361.064 281.223 359.452H274.432C275.232 364.261 279.226 367.064 286.026 367.064Z" fill="white"/>
<path d="M316.37 359.454C315.549 360.601 314.175 361.214 312.776 361.057C310.176 361.311 307.788 359.6 307.185 357.05V356.649H323.961V353.855C324.097 350.731 322.919 347.693 320.714 345.482C318.51 343.27 315.481 342.089 312.367 342.225C309.094 342.017 305.886 343.202 303.531 345.491C301.176 347.779 299.891 350.957 299.994 354.245C299.994 361.455 305.185 366.264 312.771 366.264C318.363 366.264 322.757 363.459 323.956 358.652H316.37V359.454ZM307.185 352.642C307.744 350.237 309.915 348.56 312.376 348.633C314.792 348.447 316.917 350.223 317.17 352.64V353.041L307.185 352.64V352.642Z" fill="white"/>
<path d="M339.15 367.064C341.388 367.154 343.606 366.598 345.539 365.462H345.939V367.064H353.527V343.426H345.929V345.028H345.539C341.829 342.877 337.257 342.876 333.547 345.025C329.836 347.175 327.552 351.148 327.556 355.446C327.701 361.806 332.81 366.925 339.15 367.064ZM340.747 348.634C342.644 348.584 344.441 349.486 345.539 351.038V358.65C344.44 360.203 342.642 361.105 340.745 361.054C339.188 361.068 337.697 360.427 336.633 359.288C335.569 358.148 335.029 356.614 335.144 355.056C334.937 353.439 335.43 351.81 336.5 350.582C337.569 349.354 339.112 348.645 340.738 348.634H340.747Z" fill="white"/>
<path d="M374.285 343.025C371.474 342.839 368.715 343.858 366.697 345.83L366.297 346.232V343.426H358.708V366.665H366.297V353.442C368.436 351.402 371.345 350.38 374.285 350.637V343.025Z" fill="white"/>
<path d="M394.256 357.05C393.699 359.233 391.705 360.735 389.46 360.665C387.903 360.676 386.412 360.032 385.35 358.89C384.287 357.749 383.75 356.212 383.868 354.655C383.76 353.136 384.314 351.644 385.386 350.565C386.459 349.487 387.945 348.929 389.46 349.034C391.702 348.964 393.693 350.461 394.254 352.64H401.442C400.544 346.744 395.403 342.447 389.46 342.626C386.164 342.472 382.946 343.663 380.539 345.927C378.132 348.191 376.741 351.336 376.682 354.645C376.682 361.856 381.874 366.665 389.46 366.665C395.455 366.997 400.686 362.624 401.442 356.649H394.256V357.05Z" fill="white"/>
<path d="M417.423 349.436C420.22 349.436 421.817 351.439 421.817 354.643V366.663H429.405V353.442C429.405 347.034 425.411 342.624 419.82 342.624C417.472 342.631 415.205 343.484 413.431 345.028L413.031 345.429V332.607H405.441V366.663H413.029V351.833C414.146 350.514 415.712 349.659 417.423 349.436Z" fill="white"/>
<path d="M260.455 309.769V321.789H268.044V308.568C268.044 302.16 264.049 297.749 258.458 297.749C255.349 297.657 252.331 298.81 250.07 300.954C248.259 298.876 245.628 297.704 242.877 297.749C240.808 297.546 238.757 298.281 237.286 299.753L236.886 300.154V298.552H229.695V321.791H237.283V306.966C238.18 305.859 239.467 305.141 240.877 304.963C243.674 304.963 245.271 306.966 245.271 310.17V322.197H252.462V307.365C253.359 306.258 254.646 305.54 256.056 305.361C258.853 304.562 260.455 306.565 260.455 309.769Z" fill="white"/>
<path d="M283.23 322.192C285.468 322.282 287.685 321.726 289.618 320.59H290.018V322.192H297.607V298.953H290.009V300.555H289.618C285.428 297.876 280.007 298.145 276.1 301.225C272.193 304.305 270.652 309.525 272.256 314.243C273.86 318.961 278.261 322.147 283.23 322.19V322.192ZM284.827 304.153C286.725 304.105 288.522 305.01 289.618 306.565V314.177C288.52 315.73 286.722 316.632 284.825 316.581C283.268 316.595 281.777 315.954 280.713 314.815C279.649 313.675 279.109 312.141 279.224 310.583C279.023 308.967 279.519 307.342 280.587 306.115C281.655 304.889 283.194 304.178 284.817 304.161L284.827 304.153Z" fill="white"/>
<path d="M318.368 298.151C315.556 297.964 312.798 298.984 310.779 300.956L310.379 301.357V298.552H302.791V321.791H310.379V308.568C312.518 306.528 315.427 305.506 318.368 305.763V298.151Z" fill="white"/>
<path d="M338.738 321.789H347.517L337.938 307.766L346.726 298.549H337.938L329.55 307.365V287.733H321.962V321.789H329.55V316.982L332.745 313.377L338.738 321.789Z" fill="white"/>
<path d="M363.903 314.58C363.081 315.727 361.707 316.339 360.308 316.182C357.708 316.437 355.32 314.726 354.717 312.176V311.775H371.493V308.981C371.629 305.857 370.451 302.819 368.247 300.607C366.042 298.396 363.014 297.215 359.899 297.351C356.627 297.142 353.419 298.328 351.063 300.616C348.708 302.904 347.424 306.083 347.526 309.37C347.526 316.581 352.718 321.39 360.304 321.39C365.895 321.39 370.289 318.584 371.489 313.778H363.903V314.58ZM354.717 307.768C355.276 305.363 357.447 303.686 359.908 303.759C362.324 303.572 364.449 305.348 364.702 307.766V308.167L354.717 307.766V307.768Z" fill="white"/>
<path d="M240.092 277.316C242.33 277.405 244.547 276.849 246.48 275.714H246.88V277.316H254.469V253.677H246.48V255.28H246.071C244.445 253.803 242.276 253.076 240.092 253.276C236.956 253.3 233.961 254.586 231.781 256.846C229.601 259.107 228.417 262.152 228.497 265.296C228.417 268.44 229.601 271.485 231.781 273.746C233.961 276.006 236.956 277.292 240.092 277.316ZM241.689 259.277C243.679 259.309 245.562 260.187 246.871 261.691V268.901C245.56 270.408 243.673 271.285 241.679 271.315C240.122 271.326 238.632 270.683 237.569 269.541C236.507 268.399 235.97 266.863 236.088 265.306C235.825 263.716 236.312 262.094 237.407 260.915C238.502 259.737 240.08 259.135 241.679 259.286L241.689 259.277Z" fill="white"/>
<path d="M275.63 262.891H282.818C281.921 256.994 276.778 252.695 270.833 252.875C267.537 252.721 264.319 253.912 261.912 256.176C259.505 258.44 258.114 261.585 258.056 264.895C258.056 272.106 263.247 276.914 270.833 276.914C276.829 277.246 282.06 272.873 282.816 266.898H275.63C275.068 269.077 273.076 270.575 270.833 270.503C269.279 270.514 267.791 269.871 266.729 268.732C265.668 267.593 265.129 266.061 265.244 264.505C265.136 262.987 265.689 261.495 266.761 260.417C267.833 259.339 269.319 258.78 270.833 258.885C273.235 259.687 275.232 260.888 275.63 262.891Z" fill="white"/>
<path d="M296.398 277.717C298.725 277.873 301.055 277.461 303.189 276.516L302.389 270.107C301.081 270.42 299.738 270.555 298.395 270.508C295.998 270.508 294.401 269.307 294.401 266.903V260.086H302.389V253.677H294.401V246.464H286.812V267.299C287.212 273.309 290.806 277.717 296.398 277.717Z" fill="white"/>
<path d="M315.171 253.677H307.583V276.917H315.171V253.677Z" fill="white"/>
<path d="M361.105 259.687C363.902 259.687 365.499 261.69 365.499 264.895V276.914H373.095V263.694C373.095 257.285 369.101 252.875 363.11 252.875C360.761 252.882 358.494 253.736 356.721 255.279L356.321 255.681V253.677H348.723V276.917H356.311V262.49C357.377 260.848 359.155 259.808 361.105 259.687Z" fill="white"/>
<path d="M332.347 252.875C325.509 252.875 319.965 258.436 319.965 265.296C319.965 272.156 325.509 277.717 332.347 277.717C339.186 277.717 344.729 272.156 344.729 265.296C344.781 261.986 343.493 258.797 341.16 256.456C338.826 254.115 335.647 252.823 332.347 252.875ZM332.347 270.914C329.482 270.914 327.158 268.585 327.156 265.711C327.153 262.837 329.472 260.504 332.338 260.499C335.203 260.494 337.531 262.818 337.538 265.692C337.496 268.553 335.198 270.863 332.347 270.914Z" fill="white"/>
<path d="M311.579 250.874C314.227 250.874 316.373 248.721 316.373 246.065C316.373 243.41 314.227 241.257 311.579 241.257C308.931 241.257 306.785 243.41 306.785 246.065C306.785 248.721 308.931 250.874 311.579 250.874Z" fill="white"/>
<path d="M387.079 315.387C384.682 315.387 383.085 314.186 383.085 311.782V304.969H391.073V298.561H383.073V290.939H375.485V311.774C375.485 317.784 379.079 322.192 384.67 322.192C386.998 322.349 389.328 321.936 391.461 320.991L390.662 314.582C389.568 315.187 388.325 315.466 387.079 315.387Z" fill="white"/>
</svg>
