<svg xmlns="http://www.w3.org/2000/svg" viewBox="0 0 100 34"><path d="M.05 22.443h3.785l4.074 7.96 4.074-7.96h3.696L9.378 33.826H6.35zM64.456 33.85h3.554l-6.315-11.409H59.34L53.026 33.85h3.264l1.293-2.526h5.58l1.293 2.526zm-5.75-4.722l1.667-3.255 1.666 3.255h-3.333zM17.495 22.441h3.134v11.385h-3.134zM24.329 22.441h7.302c1.628 0 2.91.358 3.723 1.009.651.52.976 1.155.976 1.936v.032c0 1.285-.854 2-1.872 2.456 1.65.504 2.666 1.269 2.666 2.797v.033c0 2.081-2.116 3.122-5.329 3.122h-7.466V22.44zm6.631 4.543c1.384 0 2.258-.34 2.258-1.143v-.03c0-.712-.733-1.112-2.054-1.112H27.38v2.285h3.579zm.835 4.584c1.383 0 2.216-.37 2.216-1.174v-.03c0-.727-.711-1.175-2.32-1.175h-4.31v2.38h4.414zM88.917 24.751H84.24v-2.31h12.488v2.31H92.05v9.075h-3.133zM39.353 22.449h7.194c1.81 0 3.213.406 4.148 1.152.79.633 1.22 1.526 1.22 2.597v.032c0 1.835-1.431 2.976-2.64 3.351a9.53 9.53 0 01-1.031.24c1.641.501 2.979 1.92 4.095 3.991h-3.791c-1.925-2.862-3.142-3.576-6.066-3.576v3.576h-3.13V22.449zm6.991 5.437c1.526 0 2.4-.617 2.4-1.527v-.03c0-1.018-.936-1.543-2.462-1.543h-3.8v3.1h3.862zM69.183 22.466l2.68-.003c2.097 1.398 5.06 3.462 6.881 5.924v-5.921h3.093v11.385h-2.665c-2.202-3.377-5.268-6.245-6.896-7.23v7.23h-3.093V22.466zM97.78 22.638h-.339v-.188h.915v.188h-.339v.948h-.237v-.948zm1.856.05h-.006l-.333.899h-.154l-.334-.9h-.005v.9h-.22V22.45h.327l.31.806.308-.806h.328v1.137h-.22v-.9zM46.371 15.121c.431.45.823.765 1.186.944.528.261 1.128.334 1.791.223L39.48.175h-5.847l12.74 14.946zM57.871 6.133l-1.29 1.521c-.807-1.842-3.364-5.402-8.697-5.722 5.225-.174 8.637 2.665 9.987 4.201m-3.95 4.653l1.694-1.99c-1.607-4.098-5.1-6.845-9.33-6.652-.676.101-1.707.313-2.475.614 5.919-.136 8.942 4.547 10.11 8.028m-11.562-7.37l7.465 12.192 2.611-3.065c-.618-2.549-2.84-9.303-9.295-9.454-.184.003-.66.248-.781.328M58.263 5.649l4.68-5.475h-5.847L55.24 3.257c1.408.824 2.42 1.705 3.023 2.392"/></svg>