<svg xmlns="http://www.w3.org/2000/svg" viewBox="0 0 110 22"><path d="M32.536 8.01V4.84c0-1.434-.657-2.211-1.972-2.211h-3.348v12.793h1.733v-5.2h1.017l1.136 5.2h1.614l-1.196-5.32c.717-.24 1.016-.957 1.016-2.093zm-1.674-.06c0 .597-.239.956-.777.956H28.95V4.303h1.136c.538 0 .777.299.777.956v2.69zM37.558 2.689h-1.614c-1.375 0-2.033.717-2.033 2.212v8.429c0 1.435.718 2.152 2.093 2.152h1.614c1.375 0 2.092-.717 2.092-2.152V4.9c-.12-1.494-.777-2.211-2.152-2.211zm.359 10.521c0 .479-.24.718-.658.718h-.897c-.538 0-.777-.24-.777-.718V4.96c0-.478.24-.717.777-.717h.778c.538 0 .777.24.777.717v8.25zM44.194 2.689h-1.076c-1.375 0-2.033.717-2.033 2.152v8.43c0 1.434.658 2.151 2.033 2.151h1.076c1.375 0 2.033-.717 2.033-2.152v-.837h-1.734v.718c0 .478-.24.717-.658.717h-.418c-.478 0-.658-.24-.658-.717V4.96c0-.479.24-.718.658-.718h.358c.539 0 .778.24.778.717v1.316h1.733V4.84c-.06-1.435-.717-2.152-2.092-2.152zM47.602 2.689h1.734v12.793h-1.734zM49.395 9.085v.12l2.152 6.277h1.674L50.95 9.026l1.794-6.337h-1.554zM55.911 9.683h2.272V8.13h-2.272V4.243h2.511V2.689h-4.185v12.793h4.185v-1.554h-2.51zM59.08 2.689v1.554h1.614v11.24h1.734V4.242h1.614V2.689zM64.998 2.689h1.734v12.793h-1.734zM70.02 7.113l1.853 5.798v2.571h1.734V2.69h-1.734v6.157L70.02 2.69h-1.674v12.793h1.674zM74.564 4.243h1.614v11.24h1.733V4.242h1.614V2.689h-4.961zM82.216 9.683h2.271V8.13h-2.271V4.243h2.57V2.689h-4.244v12.793h4.244v-1.554h-2.57zM91.303 8.01V4.84c0-1.434-.658-2.211-1.973-2.211h-3.348v12.793h1.734v-5.2h1.016l1.136 5.2h1.614l-1.196-5.32c.658-.24 1.017-.957 1.017-2.093zm-1.734-.06c0 .597-.24.956-.777.956h-1.136V4.303h1.136c.538 0 .777.299.777.956v2.69zM94.471 7.113l1.794 5.798v2.571h1.733V2.69h-1.733v6.157L94.47 2.69h-1.734v12.793h1.734zM101.286 9.683h2.272V8.13h-2.272V4.243h2.571V2.689h-4.245v12.793h4.245v-1.554h-2.57zM104.455 2.689v1.554h1.614v11.24h1.734V4.242h1.614V2.689zM20.102 6.036c1.135 3.11.478 6.756-2.033 9.267a8.75 8.75 0 01-5.082 2.51c-.478.658-.896 1.256-1.315 1.734 2.511-.06 4.962-1.016 6.875-2.929 3.109-3.109 3.767-7.712 1.973-11.418-.12.239-.24.538-.418.836zM3.84 8.547a8.275 8.275 0 012.512-4.962c2.45-2.51 6.097-3.168 9.206-2.092.299-.12.538-.299.837-.418C12.689-.66 8.145.058 5.036 3.107 3.183 4.96 2.166 7.411 2.107 9.863c.478-.419 1.076-.837 1.734-1.316z"/><ellipse transform="rotate(45.016 20.433 1.685)" cx="20.052" cy="1.685" rx="1" ry="1.315"/><path d="M21.118.477c-.12-.06-6.277 2.81-11.598 6.217C3.004 10.88.254 13.63.254 13.63c-.18.18-.12.359.12.359 0 0 5.14.179 6.097 1.135.957.957 1.136 6.098 1.136 6.098 0 .24.18.3.359.12 0 0 2.75-2.75 6.875-9.266C18.308 6.754 21.237.596 21.118.477z"/></svg>
