<svg width="60" height="30" viewBox="0 0 60 30" xmlns="http://www.w3.org/2000/svg">
<path d="M5.28376 17.1429V13.5029H1.99609V17.1429H0V19.3738H1.99609V26.4188C1.99609 27.1233 2.1135 27.593 2.23092 27.9452C2.46575 28.2975 2.70059 28.5323 3.05284 28.7671C3.5225 29.002 3.87476 29.1194 4.34442 29.2368C4.81409 29.2368 5.28376 29.3542 5.75342 29.3542C6.10568 29.3542 6.45793 29.3542 6.81018 29.2368C7.16243 29.2368 7.39726 29.2368 7.74951 29.2368V26.6536L7.16243 26.771C7.04501 26.771 6.92759 26.771 6.69276 26.771C6.10568 26.771 5.75342 26.6536 5.51859 26.4188C5.40117 26.3014 5.28376 25.9491 5.28376 25.362V19.3738H7.74951V17.1429H5.28376ZM8.45401 20.7828H11.7417C11.8591 20.1957 12.0939 19.726 12.4462 19.3738C12.7984 19.1389 13.2681 19.0215 13.9726 19.0215C14.2074 19.0215 14.5597 19.0215 14.7945 19.0215C15.0294 19.1389 15.2642 19.1389 15.499 19.2564C15.6164 19.3738 15.8513 19.6086 15.9687 19.8434C16.0861 20.0783 16.0861 20.3131 16.0861 20.6654C16.2035 21.0176 15.9687 21.2524 15.8513 21.4873C15.499 21.6047 15.2642 21.7221 14.9119 21.8395C14.5597 21.9569 14.09 21.9569 13.6204 22.0744C13.1507 22.0744 12.681 22.1918 12.2114 22.1918C11.6243 22.3092 11.1546 22.4266 10.6849 22.544C10.2153 22.6615 9.7456 22.8963 9.39335 23.1311C8.92368 23.366 8.68885 23.7182 8.45401 24.1879C8.21918 24.6575 8.10176 25.2446 8.10176 25.8317C8.10176 26.4188 8.21918 27.0059 8.33659 27.4755C8.57143 27.9452 8.92368 28.2975 9.27593 28.5323C9.62818 28.8845 10.0978 29.1194 10.5675 29.2368C11.0372 29.3542 11.6243 29.4716 12.2114 29.4716C12.9159 29.4716 13.6204 29.3542 14.4423 29.1194C15.1468 28.8845 15.7339 28.5323 16.3209 28.0626V28.6497L16.5558 29.2368H19.8434C19.726 29.002 19.6086 28.5323 19.6086 28.0626C19.4912 27.593 19.4912 27.0059 19.4912 26.5362V20.1957C19.4912 19.6086 19.3738 19.0215 18.9041 18.4344C18.6693 17.9648 18.1996 17.6125 17.7299 17.3777C17.1429 17.1429 16.5558 17.0254 15.9687 16.908C14.6771 16.6732 13.3855 16.7906 12.0939 17.0254C11.5068 17.1429 10.9198 17.2603 10.3327 17.6125C9.86301 17.9648 9.39335 18.317 9.0411 18.9041C8.68885 19.4912 8.45401 20.1957 8.45401 20.7828ZM16.2035 23.2485V24.5401C16.0861 24.775 16.0861 25.0098 16.0861 25.2446C16.0861 25.5969 15.9687 25.9491 15.7339 26.184C15.6164 26.5362 15.3816 26.771 15.0294 27.0059C14.5597 27.2407 13.9726 27.3581 13.5029 27.3581C13.1507 27.3581 12.9159 27.2407 12.681 27.2407C12.4462 27.2407 12.2114 27.1233 11.9765 27.0059C11.8591 26.8885 11.7417 26.6536 11.6243 26.5362C11.5068 26.3014 11.3894 26.0665 11.3894 25.7143C11.3894 25.4795 11.5068 25.2446 11.5068 25.0098C11.6243 24.775 11.8591 24.6575 11.9765 24.4227C12.2114 24.3053 12.4462 24.1879 12.681 24.1879C12.9159 24.0705 13.1507 24.0705 13.3855 23.953C13.6204 23.953 13.9726 23.8356 14.2074 23.8356C14.6771 23.8356 15.1468 23.7182 15.6164 23.6008C15.8513 23.4834 15.9687 23.366 16.2035 23.2485ZM21.8395 19.3738V29.2368H25.1272V19.3738H27.4755V17.1429H25.1272V16.4384C25.1272 15.8513 25.2446 15.499 25.362 15.3816C25.5969 15.1468 25.9491 15.0294 26.4188 15.0294C26.771 15.0294 27.2407 15.0294 27.593 15.1468V12.5636C27.3581 12.5636 27.0059 12.5636 26.771 12.5636C26.4188 12.5636 26.184 12.5636 25.8317 12.5636C24.5401 12.5636 23.4834 12.9159 22.7789 13.5029C22.1918 14.2074 21.8395 15.1468 21.8395 16.2035V17.1429H19.8434V19.3738H21.8395ZM36.047 21.8395H30.6458C30.7632 21.6047 30.7632 21.3699 30.7632 21.0176C30.8806 20.7828 31.1155 20.5479 31.2329 20.1957C31.4677 19.9609 31.82 19.726 32.0548 19.6086C32.5245 19.3738 32.9941 19.2564 33.4638 19.2564C34.2857 19.2564 34.8728 19.4912 35.225 19.9609C35.5773 20.4305 35.9295 21.0176 36.047 21.8395ZM30.6458 23.953H39.4521C39.4521 23.0137 39.3346 22.0744 39.2172 21.2524C38.9824 20.4305 38.6301 19.726 38.1605 19.0215C37.5734 18.317 36.9863 17.8474 36.2818 17.3777C35.4599 17.0254 34.5205 16.7906 33.5812 16.7906C32.2896 16.7906 31.1155 17.1429 30.0587 17.8474C29.002 18.5519 28.2975 19.4912 27.8278 20.6654C27.4755 21.4873 27.3581 22.3092 27.3581 23.2485C27.3581 24.0705 27.4755 25.0098 27.8278 25.7143C28.0626 26.5362 28.5323 27.2407 29.002 27.8278C29.589 28.2975 30.2935 28.7671 30.998 29.1194C31.82 29.3542 32.6419 29.589 33.5812 29.589C34.8728 29.589 36.047 29.2368 37.1037 28.6497C38.1605 27.8278 38.865 26.771 39.2172 25.4795H36.2818C36.1644 25.8317 35.9295 26.184 35.3425 26.5362C34.8728 26.8885 34.2857 27.1233 33.6986 27.1233C32.7593 27.1233 32.0548 26.8885 31.4677 26.3014C30.998 25.8317 30.7632 25.0098 30.6458 23.953ZM41.5656 25.2446C41.5656 25.9491 41.683 26.5362 42.0352 27.0059C42.6223 27.7104 43.5616 28.18 44.8532 28.18C45.5577 28.18 46.1448 28.0626 46.6145 27.9452C47.5538 27.593 48.0235 26.8885 48.0235 26.0665C48.0235 25.362 47.9061 24.8924 47.4364 24.6575C47.0841 24.4227 46.3796 24.1879 45.4403 23.953L43.7965 23.6008C42.9746 23.366 42.2701 23.1311 41.5656 22.7789C41.0959 22.544 40.8611 22.1918 40.6262 21.8395C40.3914 21.3699 40.274 20.9002 40.3914 20.5479C40.3914 19.9609 40.3914 19.4912 40.6262 19.0215C40.8611 18.5519 41.0959 18.0822 41.4481 17.8474C42.2701 17.1429 43.3268 16.7906 44.7358 16.7906C45.91 16.6732 46.9667 17.0254 47.9061 17.6125C48.8454 18.317 49.3151 19.2564 49.3151 20.6654H47.7886C47.6712 19.9609 47.5538 19.4912 47.2016 19.1389C46.7319 18.4344 45.91 18.1996 44.7358 18.1996C43.6791 18.1996 42.9746 18.4344 42.6223 18.7867C42.1526 19.2564 41.9178 19.726 41.9178 20.1957C41.9178 20.7828 42.1526 21.2524 42.7397 21.4873C42.9746 21.7221 43.7965 21.9569 44.8532 22.1918L46.6145 22.544C47.4364 22.7789 48.0235 23.0137 48.4932 23.366C48.9628 23.6008 49.1977 24.0705 49.4325 24.4227C49.6673 24.8924 49.6673 25.362 49.6673 25.8317C49.6673 27.1233 49.1977 28.18 48.2583 28.7671C47.2016 29.3542 46.0274 29.589 44.8532 29.589C43.5616 29.7065 42.2701 29.2368 41.2133 28.4149C40.8611 28.0626 40.5088 27.593 40.274 27.0059C40.0391 26.4188 39.9217 25.9491 40.0391 25.362H41.5656V25.2446ZM56.4775 24.1879L54.5988 18.7867L52.6027 24.1879H56.4775ZM53.7769 17.0254H55.6556L60 29.2368H58.2387L56.9472 25.5969H52.1331L50.8415 29.2368H49.1977L53.7769 17.0254ZM46.6145 11.5069C46.6145 13.6204 43.4442 15.3816 39.5695 15.3816C35.6947 15.3816 32.5245 13.7378 32.5245 11.5069C32.5245 9.39335 35.6947 7.63209 39.5695 7.63209C43.4442 7.63209 46.6145 9.39335 46.6145 11.5069ZM58.8258 8.68885C58.8258 10.4501 56.3601 11.8591 53.1898 11.8591C50.0196 11.8591 47.5538 10.4501 47.5538 8.68885C47.5538 7.04501 50.137 5.63601 53.1898 5.63601C56.3601 5.63601 58.8258 7.04501 58.8258 8.68885ZM50.0196 3.87476C50.0196 5.16634 48.2583 6.10568 46.0274 6.10568C43.7965 6.10568 41.9178 5.16634 41.9178 3.87476C41.9178 2.58317 43.7965 1.64384 46.0274 1.64384C48.2583 1.64384 50.0196 2.58317 50.0196 3.87476ZM56.9472 1.52642C56.9472 2.46575 55.773 3.17025 54.1292 3.17025C52.6027 3.17025 51.3112 2.46575 51.3112 1.52642C51.3112 0.704501 52.4853 0 54.1292 0C55.6556 0 56.9472 0.704501 56.9472 1.52642Z" fill="white"/>
</svg>
