<svg xmlns="http://www.w3.org/2000/svg" viewBox="0 0 100 23"><path d="M30.678 8.323c.42.685.59 1.657.195 2.406-.386.9-1.337 1.515-2.33 1.539-.99.012-1.894-.495-2.35-1.398-.326-.588-.335-1.415-.081-2.055a2.583 2.583 0 012.162-1.633c.972-.024 1.873.323 2.404 1.141M42.967 1.672l.219-.026c1.933-1.722 5.203-2.067 7.49-.863 2.164 1.065 3.643 3.343 3.76 5.757l.026 9.713h-4.677L49.77 6.71c-.08-.83-.61-1.755-1.5-1.998-.828-.19-1.72 0-2.31.65-.551.55-.65 1.3-.589 2.104v8.812H40.72l-.026-9.702c-.036-.853-.671-1.6-1.468-1.876-.768-.264-1.636-.047-2.211.447a2.47 2.47 0 00-.735 1.584v9.547h-4.677l.026-9.507c.048-2.765 1.957-5.364 4.544-6.29 2.285-.88 4.991-.311 6.794 1.192M66.77 1.187c.205-.12.076-.455.11-.697h10.548c.573.614 1.02 1.298 1.515 1.974 0 .226-.433.085-.352.35l3.942 5.324 1.544 2.119-.1.237c-.806 1.106-1.56 2.19-2.44 3.272h-.083c-.542-.64-.951-1.346-1.54-1.95l-.13.038-3.307 4.328-.18.048h-9.45v-.735c-.167-.095-.317.086-.462.171-2.202 1.503-5.657 1.151-7.764-.302-2.875-1.864-4.354-5.217-3.75-8.572.502-2.97 3.067-5.81 6.026-6.53 1.966-.516 4.301-.3 5.873.925m-.407 5.22c-.749-1.19-2.042-1.96-3.547-1.803-1.368.073-2.654 1.12-3.113 2.378-.454 1.134-.252 2.551.468 3.512.828 1.106 2.09 1.672 3.51 1.49 1.192-.156 2.319-.984 2.84-2.09.504-1.048.48-2.513-.158-3.488m10.137.685L71.85.866l-.11-.024-.074.238v13.119c.083 0 .13-.072.195-.136l4.856-6.406c.119-.238-.121-.385-.217-.566M88.221.16c-.623.9-1.262 1.802-1.973 2.667h-.06c-.285-.24-.395-.73-.863-.623l-4.487-.028c-.036-.031-.093-.031-.117-.079.454-.675.925-1.322 1.491-1.938l.19-.11h5.712l.107.11zM13.637 4.699h-4.41l-.03 11.124H4.414V4.711L0 4.699V.086h13.637z"/><path d="M85.494 2.65c.794.912 1.44 1.959 2.233 2.881l.17-.045c.736-.892 1.409-1.838 2.108-2.73l5.626.024c.126-.012.095.169.03.216l-4.66 6.566c-.183.193-.062.397.06.573l4.276 5.812a217.81 217.81 0 014.617 6.18c.048.119-.095.143-.178.13l-5.852-.02-6.002-7.965-.154-.083c-.95 1.106-1.71 2.333-2.637 3.465h-6.078v-.157l5.49-7.503c.086-.18-.05-.311-.13-.432l-4.99-6.806.105-.119 5.966.012zM9.818 9.745a2.547 2.547 0 115.096 0 2.548 2.548 0 11-5.096 0M20.155.11l.043 15.692h-4.71V.11z"/><path d="M20.098 7.633c.733-.889 3.037-3.98 3.727-4.867l5.628.024c.133-.015.098.168.038.216l-4.665 6.565c-.18.19-.062.395.06.574l4.28 5.811a226.32 226.32 0 014.615 6.178c.05.12-.092.145-.178.133l-5.86-.024L20.14 12.11l-.04-4.476zM99.41 4.782a1.931 1.931 0 01-3.864 0 1.928 1.928 0 011.933-1.93c1.063 0 1.93.865 1.93 1.93m-.223 0a1.71 1.71 0 00-1.715-1.707 1.7 1.7 0 00-1.7 1.712 1.7 1.7 0 001.708 1.705c.941 0 1.707-.763 1.707-1.71"/><path d="M96.753 5.79V3.66h.954c.333 0 .647.064.682.547.01.273-.078.375-.283.527.217.14.224.177.255.545.028.283-.017.328.102.511h-.326l-.043-.268c-.045-.255.076-.647-.366-.647h-.699v.915h-.276zm.961-1.885h-.685v.732h.685c.183 0 .362-.047.392-.326.036-.363-.223-.406-.392-.406z"/></svg>
