<svg width="314" height="314" viewBox="0 0 314 314" fill="none" xmlns="http://www.w3.org/2000/svg">
  <path d="M0.000976562 222.416L52.3327 248.584L104.667 222.416V314L157 287.834V140.179L183.167 125.227V314L235.499 287.834V140.179L261.666 125.227V314L313.999 287.834V130.834L274.75 104.667L232.479 128.821L196.25 104.667L153.982 128.821L117.75 104.667L78.501 117.75L104.667 130.834V209.335L93.4522 214.941L52.3327 196.25V39.2498L104.667 13.0827V52.3339L157 78.501V26.1669L104.667 0.000999451L0.000976562 52.3339V222.416Z" fill="#20212D"/>
  <path d="M261.666 313.998L287.833 271.358L314 287.832L261.666 313.998Z" fill="#20212D"/>
  <path d="M287.833 144.886L313.999 130.833V287.832L287.833 271.358V144.886Z" fill="#3A3B4A"/>
  <path d="M261.666 125.227V313.998L287.833 271.358V144.887L274.75 115.042L261.666 125.227Z" fill="#303140"/>
  <path d="M313.999 130.833L287.833 144.886L274.75 115.042V104.667L313.999 130.833Z" fill="#454653"/>
  <path d="M274.75 104.667V115.042L231.779 134.285L232.479 128.821L274.75 104.667Z" fill="#3A3B4A"/>
  <path d="M261.666 125.227L235.5 140.179L231.779 134.285L274.75 115.042L261.666 125.227Z" fill="#20212D"/>
  <path d="M196.25 104.667V116.744L209.333 144.886L231.779 134.285L232.48 128.821L196.25 104.667Z" fill="#454653"/>
  <path d="M235.5 287.832L209.333 271.358V144.886L231.779 134.285L235.5 140.178V287.832Z" fill="#3A3B4A"/>
  <path d="M183.167 313.998L209.333 271.358L235.5 287.832L183.167 313.998Z" fill="#20212D"/>
  <path d="M183.167 125.227L196.25 116.744L209.333 144.886V271.358L183.167 313.998V125.227Z" fill="#303140"/>
  <path d="M153.981 128.821L196.25 104.667V116.744L149.488 135.921L153.981 128.821Z" fill="#3A3B4A"/>
  <path d="M157 140.178L183.167 125.226L196.25 116.744L149.488 135.921L157 140.178Z" fill="#20212D"/>
  <path d="M104.667 313.998L130.833 271.358L157 287.832L104.667 313.998Z" fill="#20212D"/>
  <path d="M157 287.832L130.833 271.358V144.886L149.488 135.921L157 140.178V287.832Z" fill="#3A3B4A"/>
  <path d="M117.75 104.667L153.98 128.821L149.489 135.921L130.833 144.886L117.75 121.142V104.667Z" fill="#454653"/>
  <path d="M78.5 117.75L117.75 121.142V104.667L78.5 117.75Z" fill="#3A3B4A"/>
  <path d="M104.667 130.833L78.5 117.75L117.75 121.142L123.09 130.833H104.667Z" fill="#20212D"/>
  <path d="M104.667 130.833H123.09L130.833 144.886V271.358L104.667 314V130.833Z" fill="#303140"/>
  <path d="M93.4524 214.941L104.667 209.333V222.416H93.4524V214.941Z" fill="#303140"/>
  <path d="M52.3329 248.582V222.416H93.4524H104.667L52.3329 248.582Z" fill="#20212D"/>
  <path d="M52.3329 196.25L93.4524 214.941V222.416H52.3329L25.7552 206.91L52.3329 196.25Z" fill="#3A3B4A"/>
  <path d="M52.3329 248.582L0 222.416L25.7552 206.91L52.3329 222.416V248.582Z" fill="#303140"/>
  <path d="M0 52.3329V222.416L25.7552 206.91V68.7467L0 52.3329Z" fill="#303140"/>
  <path d="M52.3329 39.25V196.25L25.7552 206.908V68.7467L44.3126 39.25H52.3329Z" fill="#3A3B4A"/>
  <path d="M0 52.3329L25.7552 68.7467L44.3126 39.25L104.586 7.08674V0L0 52.3329Z" fill="#454653"/>
  <path d="M44.3138 39.25H52.3329L104.586 13.0841V7.08795L44.3138 39.25Z" fill="#20212D"/>
  <path d="M157 26.1671L134.225 40.9468L104.586 7.08674V0L157 26.1671Z" fill="#454653"/>
  <path d="M104.586 52.3329L134.225 40.9468L104.586 7.08673V52.3329Z" fill="#3A3B4A"/>
  <path d="M157 78.5L134.225 40.9468L157 26.1671V78.5Z" fill="#3A3B4A"/>
  <path d="M104.586 52.3329L134.225 40.9468L157 78.5L104.586 52.3329Z" fill="#303140"/>
</svg>
