<svg width="440" height="74" viewBox="0 0 440 74" fill="none" xmlns="http://www.w3.org/2000/svg">
<path d="M30.981 37.4923C28.2374 37.4923 26.7518 36.3956 25.9495 34.3936C25.1512 32.4984 25.38 31.6106 23.3209 31.6106C21.2638 31.6106 16.4621 36.8262 15.7757 43.9855C15.6618 44.8295 15.5479 49.5679 15.5479 52.2022V58.6625C15.5479 61.5057 15.3201 65.0881 15.8906 67.194C16.4621 70.0382 17.2624 70.353 19.6642 71.3001C20.4635 71.6195 20.8072 71.7226 21.3777 71.8266V72.0383H0V71.8266C0.588063 71.7023 1.16184 71.5263 1.71346 71.3011C4.11627 70.3521 4.80165 70.0382 5.37314 67.195C5.94462 65.0872 5.71682 61.5057 5.71682 58.6634V40.3338C5.71682 38.5453 5.83072 33.4884 5.60193 31.9099C5.25924 29.9088 4.68775 29.2765 3.65769 28.5392C2.51572 27.697 1.37275 27.697 0.686375 27.5903V27.3804H14.9764C15.6618 27.3804 15.6618 27.5903 15.6618 28.0118L15.5479 40.0199H15.6618C17.0336 34.7531 20.0059 31.3834 21.6045 29.9097C23.207 28.3294 26.1803 26.4332 29.838 26.4332C31.5515 26.4332 33.4967 26.8548 34.7535 28.1186C35.6697 28.958 36.3551 30.3286 36.3551 32.544C36.3551 35.0679 34.6416 37.4896 30.982 37.4896L30.981 37.4923ZM245.498 37.4923C242.755 37.4923 241.269 36.3956 240.467 34.3936C239.668 32.4984 239.896 31.6106 237.84 31.6106C235.78 31.6106 230.98 36.8262 230.293 43.9855C230.179 44.8295 230.063 49.5679 230.063 52.2022V58.6625C230.063 61.5057 229.836 65.0881 230.41 67.194C230.98 70.0382 231.78 70.353 234.181 71.3001C234.981 71.6195 235.324 71.7226 235.896 71.8266V72.0383H214.517V71.8266C214.975 71.7226 215.434 71.6186 216.231 71.3011C218.633 70.3521 219.319 70.0382 219.891 67.195C220.462 65.0872 220.232 61.5057 220.232 58.6634V40.3338C220.232 38.5453 220.349 33.4884 220.118 31.9099C219.777 29.9088 219.205 29.2765 218.175 28.5392C217.032 27.697 215.89 27.697 215.204 27.5903V27.3804H229.494C230.18 27.3804 230.18 27.5903 230.18 28.0118L230.064 40.0199H230.18C231.551 34.7531 234.523 31.3834 236.125 29.9097C237.725 28.3294 240.698 26.4332 244.355 26.4332C246.069 26.4332 248.014 26.8548 249.272 28.1186C250.185 28.958 250.87 30.3286 250.87 32.544C250.87 35.0679 249.156 37.4896 245.498 37.4896V37.4923ZM61.9629 30.4107C60.1326 29.0219 58.3042 28.5 55.5597 28.5C53.1599 28.5 51.3305 29.0228 49.6171 30.4983C47.1014 32.5787 45.7276 37.3555 45.3859 44.2145H61.847C65.165 44.2145 65.5057 44.126 65.5057 40.3073C65.5057 35.0104 63.7923 31.7995 61.9629 30.4116V30.4107V30.4107ZM75.5666 46.3405H45.3859C45.3859 58.6625 47.1014 62.4228 50.4174 65.8983C53.045 68.6357 55.4468 69.373 58.7618 69.373C67.9085 69.373 72.938 65.0881 74.6524 57.7144L75.11 57.8203C73.0519 66.9833 66.7656 72.9855 56.9335 72.9855C51.2156 72.9855 45.0452 71.7226 40.814 67.6147C36.2402 63.0861 34.5248 57.6095 34.5248 50.0251C34.5248 35.9147 43.3298 26.4351 55.4468 26.4351C69.5081 26.4351 75.6815 35.1765 75.6815 43.3933C75.6815 44.1296 75.6815 45.1835 75.5666 46.3405V46.3405ZM94.9594 51.2533C91.7603 52.8355 90.3856 53.8857 89.3585 55.3594C88.2145 57.0447 87.5291 58.9417 87.5291 61.8908C87.5291 67.8948 90.0449 69.1613 94.6167 69.1613C95.5309 69.1613 96.56 69.0555 97.4741 68.6321C99.875 67.4751 103.349 64.1063 103.349 60.7365L103.462 45.9883C101.863 48.3033 98.0446 49.7787 94.9584 51.2533H94.9594V51.2533ZM111.923 72.9846C109.179 72.9846 107.008 72.8805 105.635 72.1451C104.15 71.406 103.12 69.2982 103.349 65.4038H103.233C102.091 68.9843 96.9007 72.9846 89.5863 72.9846C82.8414 72.9846 76.8958 69.4077 76.8958 61.8224C76.8958 58.9782 77.8099 56.7655 79.7552 55.0829C83.299 52.0289 88.0996 51.8162 93.0152 50.0251C99.5323 47.7074 103.692 44.8678 103.692 41.7089C103.692 40.1276 103.838 36.5388 103.838 34.9584C103.838 29.271 101.049 28.3248 96.1321 28.3248C93.7323 28.3248 92.2466 28.7445 91.1036 29.7984C89.9607 30.8523 89.4724 31.8059 89.4724 34.9666C89.4724 38.2314 87.5291 39.602 84.328 39.602C81.8123 39.602 79.7552 38.3364 79.7552 35.5981C79.7552 33.8078 80.4406 32.545 81.5835 31.2794C84.0992 28.3321 91.0719 26.5391 95.9885 26.5391C104.447 26.5391 113.866 29.3842 113.866 36.8627C113.866 40.3356 113.638 56.8458 113.638 63.1664C113.638 64.5607 113.625 65.9586 113.735 67.3528C113.871 69.0683 114.419 71.0346 116.51 71.4635C117.476 71.6606 118.739 71.4909 119.546 70.9379V71.0839C118.402 72.0301 115.58 72.9846 111.923 72.9846V72.9846ZM119.695 72.0383V71.8266C120.356 71.7012 121.006 71.5254 121.636 71.3011C123.582 70.562 124.496 69.9324 125.067 67.195C125.525 65.1921 125.525 61.7202 125.525 58.7683V12.9534C125.525 11.1631 125.639 6.10805 125.296 4.52766C124.952 2.52662 124.38 1.79026 123.352 1.16066C122.094 0.314801 121.179 0.314801 120.381 0.211692V0H134.784C135.469 0 135.469 0 135.469 0.735448C135.469 2.31584 135.356 4.52675 135.356 7.37182V58.7674C135.356 61.7183 135.242 65.0872 135.698 67.1931C136.385 70.0373 137.184 70.562 139.587 71.4051C140.272 71.6177 140.501 71.7217 141.072 71.8248V72.0374H119.695V72.0383ZM172.394 66.2451C170.681 69.7198 165.649 72.9846 160.734 72.9846C156.277 72.9846 153.305 72.355 150.79 70.2472C148.729 68.5618 147.816 66.4568 147.816 62.5605C147.816 60.4527 148.159 33.1746 148.274 28.0127C146.558 27.9087 143.242 27.9087 141.529 27.6979V27.4881C148.617 26.0117 153.074 22.6447 157.875 8.42389H158.222V25.863H169.539V27.9087H158.221L157.76 63.3006C157.76 67.3017 159.018 70.7399 163.59 70.7399C167.591 70.7399 170.68 68.5618 172.05 66.0361L172.394 66.246" fill="#2E4A34"/>
<path d="M199.258 31.554C196.97 29.0265 194.342 28.5 191.711 28.5C189.199 28.5 186.454 29.3449 184.282 31.45C180.852 34.7148 178.909 41.6022 178.909 49.6064C178.909 57.8223 180.966 64.2479 184.168 67.7244C186.454 70.2519 189.2 70.8834 191.712 70.8834C194.342 70.8834 196.857 70.3587 199.259 67.8302C202.344 64.3537 204.516 57.8223 204.516 49.6082C204.516 41.4963 202.46 35.0305 199.257 31.5558L199.258 31.554V31.554ZM191.711 72.9848C180.396 72.9848 168.277 64.0353 168.277 49.6054C168.277 35.1765 180.396 26.4351 191.711 26.4351C203.031 26.4351 215.263 35.2833 215.263 49.6064C215.263 63.9322 203.031 72.9866 191.711 72.9866V72.9848ZM331.981 31.554C329.695 29.0265 327.065 28.5 324.434 28.5C321.92 28.5 319.177 29.3449 317.005 31.45C313.575 34.7148 311.631 41.6022 311.631 49.6064C311.631 57.8223 313.691 64.2479 316.89 67.7244C319.178 70.2519 321.922 70.8834 324.436 70.8834C327.066 70.8834 329.582 70.3587 331.983 67.8302C335.07 64.3537 337.242 57.8223 337.242 49.6082C337.242 41.4963 335.182 35.0305 331.983 31.5558L331.981 31.554V31.554ZM324.434 72.9848C313.117 72.9848 301 64.0353 301 49.6054C301 35.1765 313.117 26.4351 324.434 26.4351C335.752 26.4351 347.986 35.2833 347.986 49.6064C347.986 63.9322 335.752 72.9866 324.434 72.9866V72.9848ZM251.273 73.618C247.955 73.618 245.211 71.1954 245.211 67.8266C245.211 64.4559 247.955 62.0324 251.273 62.0324C254.587 62.0324 257.331 64.1402 257.331 67.8266C257.331 71.513 254.588 73.618 251.273 73.618V73.618ZM283.051 72.9848C276.764 72.9848 271.162 70.7766 267.505 67.4041C262.818 62.9823 260.988 56.7647 260.988 49.1857C260.988 34.8599 272.877 26.4351 283.166 26.4351C290.251 26.4351 295.512 28.8586 297.569 31.1753C299.17 32.9665 299.973 34.546 299.973 36.0187C299.973 39.2854 297.342 40.5492 295.284 40.5492C291.398 40.5492 290.025 38.3364 289.569 34.9667C288.653 28.9626 287.625 28.1897 282.708 28.1897C280.765 28.1897 277.677 28.927 275.85 30.824C273.219 33.5615 271.848 39.1786 271.848 47.3945C271.848 57.7146 273.219 61.7933 276.193 65.7936C278.364 68.7436 281.108 69.4827 283.737 69.4827C294.026 69.4827 298.598 63.9312 300.198 57.7164L300.654 57.8222C298.598 66.144 292.654 72.9875 283.049 72.9875" fill="#2E4A34"/>
<path d="M406.524 72.063V71.8504C407.097 71.7455 407.438 71.6405 408.241 71.3257C410.525 70.4826 411.328 69.957 411.898 67.112C412.47 65.0042 412.354 61.6344 412.354 58.6862V40.3584C412.354 35.5132 411.898 33.2339 410.64 31.6553C409.155 29.8623 407.325 28.9152 404.353 28.9152C399.208 28.9152 393.491 36.9978 392.691 45.1069C392.575 46.6855 392.463 47.9812 392.463 49.9795V58.6844C392.463 61.6335 392.235 65.0042 392.806 67.111C393.376 69.9561 394.291 70.4817 396.577 71.3248C397.377 71.6405 397.719 71.7445 398.293 71.8495V72.0621H376.913V71.8495C377.483 71.7445 377.828 71.6396 378.628 71.3248C380.913 70.4817 381.714 69.9561 382.287 67.111C382.86 65.0032 382.743 61.6335 382.743 58.6853V40.3584C382.743 35.5132 382.172 33.2339 380.913 31.6553C379.428 29.8623 377.598 28.9152 374.626 28.9152C368.911 28.9152 363.763 37.2068 362.964 45.3186C362.734 47.8461 362.734 46.8881 362.734 50.0479V58.6853C362.734 61.6326 362.508 65.1109 363.078 67.2169C363.65 70.061 364.564 70.374 366.965 71.3248L368.565 71.8495V72.0621H347.189V71.8495C347.644 71.7445 348.1 71.6396 348.902 71.3248C351.302 70.4817 351.874 70.061 352.56 67.216C353.13 65.1109 353.018 61.6335 353.018 58.6844V40.4625C353.018 38.5682 353.018 33.5095 352.79 31.9309C352.446 29.9299 351.988 29.4034 350.845 28.5584C349.702 27.719 348.673 27.719 347.873 27.614V27.4042H362.274C362.964 27.4042 362.964 27.5082 362.964 28.0338L362.734 38.3565H362.85C364.222 33.723 366.737 31.0887 369.252 29.4052C371.08 28.1396 374.739 26.4525 378.74 26.4525C383.772 26.4525 387.317 27.823 389.375 30.1406C390.517 31.4053 392.346 34.3535 392.346 38.6722H392.46C393.946 33.7221 396.689 30.9829 399.09 29.4034C401.604 27.718 405.493 26.4515 408.465 26.4515C414.755 26.4515 417.613 28.2436 419.328 30.2474C420.813 31.826 422.068 34.6692 422.068 40.0427V58.6844C422.068 61.6335 421.955 65.0042 422.526 67.111C423.098 69.9561 423.897 70.3749 426.299 71.3248L427.902 71.8495V72.0621H406.518L406.524 72.063V72.063ZM433.825 27.7993C434.254 27.7993 434.595 27.708 434.84 27.5255C434.959 27.4392 435.055 27.3281 435.119 27.2013C435.184 27.0744 435.214 26.9354 435.209 26.7955V26.759C435.209 26.4306 435.085 26.1815 434.839 26.0108C434.593 25.8402 434.252 25.7553 433.823 25.7553H432.083V27.7993H433.825V27.7993ZM430.754 24.6512H433.879C434.788 24.6512 435.497 24.8812 436.004 25.3484C436.387 25.6769 436.576 26.1258 436.576 26.6943V26.7253C436.576 27.249 436.427 27.6697 436.123 27.9963C435.813 28.3219 435.405 28.5551 434.951 28.6661L436.836 31.1024H435.247L433.546 28.8714H432.085V31.1006H430.755V24.6494L430.754 24.6512V24.6512ZM433.436 33.3261C434.212 33.3316 434.981 33.1877 435.693 32.9036C437.056 32.3687 438.137 31.3617 438.703 30.0996C438.992 29.4581 439.138 28.7765 439.138 28.0538V28.0228C439.143 27.3244 438.997 26.6321 438.708 25.9862C438.432 25.365 438.027 24.7994 437.516 24.3209C437 23.8439 436.389 23.4629 435.716 23.1986C435.007 22.9189 434.242 22.7781 433.471 22.7853C432.664 22.7853 431.912 22.9249 431.217 23.205C430.523 23.4879 429.919 23.862 429.409 24.3392C428.894 24.8194 428.486 25.3871 428.206 26.0108C427.915 26.6495 427.767 27.3339 427.767 28.0547V28.0876C427.757 29.4706 428.341 30.801 429.392 31.7886C429.92 32.281 430.55 32.6708 431.245 32.935C431.939 33.1993 432.684 33.3326 433.435 33.327L433.436 33.3261ZM433.436 34.0834C432.518 34.0834 431.663 33.9256 430.869 33.6089C430.096 33.3046 429.393 32.8666 428.799 32.3187C428.212 31.7691 427.743 31.122 427.416 30.4116C427.077 29.6766 426.905 28.8854 426.909 28.0867V28.0538C426.909 27.2326 427.078 26.4588 427.416 25.7316C427.753 25.0016 428.219 24.3647 428.81 23.8154C429.409 23.2619 430.117 22.8184 430.896 22.5088C431.709 22.1854 432.587 22.0214 433.473 22.027C434.39 22.027 435.242 22.1849 436.04 22.4997C436.836 22.8172 437.526 23.2479 438.11 23.7908C438.698 24.3395 439.167 24.9868 439.491 25.6978C439.832 26.4242 440 27.1998 440 28.0228V28.0538C440 28.8769 439.832 29.6506 439.491 30.3788C439.164 31.0925 438.692 31.7423 438.101 32.2932C437.503 32.8476 436.795 33.2912 436.015 33.5998C435.213 33.9228 434.354 34.0834 433.438 34.0834H433.436V34.0834Z" fill="#2E4A34"/>
</svg>
