<svg width="437" height="71" viewBox="0 0 437 71" fill="none" xmlns="http://www.w3.org/2000/svg">
<path d="M98.7133 19.4871L111.987 49.9995H118.66L132.08 19.4871H125.48L115.433 43.5758L105.607 19.4871H98.7133Z" fill="#2E4A34"/>
<path d="M178.06 19.4871H171.387L156.72 49.9995H163.393L166.327 43.5089H182.68L185.613 49.9995H192.507L178.06 19.4871ZM168.673 38.5573L174.613 25.71L180.48 38.5573H168.673Z" fill="#2E4A34"/>
<path d="M223.747 19.4871V49.9995H229.98V29.1226L247.213 49.9995H253.3V19.4871H247.067V40.364L229.76 19.4871H223.747Z" fill="#2E4A34"/>
<path d="M309.18 33.8734C312.627 33.2043 315.12 30.327 315.047 27.1152C315.047 22.4312 310.647 19.4871 303.533 19.4871H288.647V49.9995H303.973C311.6 49.9995 316.367 46.7877 316.367 41.5684C316.293 37.5536 313.58 34.6764 309.18 33.8734ZM295.027 24.5725H303.167C306.467 24.5056 308.447 25.9107 308.447 28.1858C308.447 30.4608 306.467 31.9998 303.167 31.9998H295.027V24.5725ZM303.093 44.981H294.953V36.8845H303.093C307.127 36.8176 309.62 38.3566 309.62 40.8324C309.62 43.5089 307.2 45.0479 303.093 44.981Z" fill="#2E4A34"/>
<path d="M349.587 19.4871V49.9995H374.667V44.9141H355.967V37.2191H372.247V32.1337H355.967V24.5725H374.08V19.4871H349.587Z" fill="#2E4A34"/>
<path d="M405.54 19.4871L416.833 34.3418L404.807 49.9995H412.287L420.72 39.0926L429.3 49.9995H437L424.827 34.0741L436.047 19.4871H428.42L420.72 29.524L413.02 19.4871H405.54V19.4871Z" fill="#2E4A34"/>
<path fill-rule="evenodd" clip-rule="evenodd" d="M36.0867 35.6498L70.9842 0.879707L36.0141 48.6834L1.13744 0.828125L36.0867 35.6498Z" fill="#2E4A34"/>
<path fill-rule="evenodd" clip-rule="evenodd" d="M35.5867 49.4276V70.0142L0.322021 1.37207L35.5867 49.4276Z" fill="#2E4A34"/>
<path fill-rule="evenodd" clip-rule="evenodd" d="M71.8514 1.37207L36.5867 70.0142V49.4276L71.8514 1.37207Z" fill="#2E4A34"/>
</svg>
